<svg width="21" height="21" viewBox="0 0 21 21" fill="none" xmlns="http://www.w3.org/2000/svg">
<path d="M20.9951 3.55622C20.9951 4.04544 20.9034 4.52106 20.7199 4.9831C20.5365 5.43834 20.2715 5.83922 19.925 6.18575L6.89966 19.211C6.81812 19.2926 6.723 19.3605 6.61428 19.4149C6.51236 19.4692 6.40365 19.5134 6.28814 19.5474L1.24313 20.8112C1.17518 20.8248 1.12422 20.8316 1.09025 20.8316C0.91359 20.8316 0.760711 20.7704 0.631613 20.6481C0.502515 20.519 0.437966 20.3661 0.437966 20.1895C0.437966 20.1487 0.444761 20.0943 0.45835 20.0264L1.72215 14.9814C1.75612 14.8659 1.80029 14.7572 1.85465 14.6552C1.909 14.5465 1.97695 14.4514 2.05848 14.3699L15.2265 1.20189C15.5458 0.882538 15.9161 0.637932 16.3374 0.468066C16.7655 0.291406 17.2037 0.203075 17.6522 0.203075C18.121 0.203075 18.5592 0.291406 18.9669 0.468066C19.3746 0.637932 19.7279 0.875744 20.0269 1.1815C20.3326 1.48047 20.5704 1.83379 20.7403 2.24146C20.9102 2.64914 20.9951 3.08739 20.9951 3.55622ZM19.6905 3.59699C19.6905 3.30482 19.6396 3.03304 19.5377 2.78164C19.4425 2.52344 19.3032 2.29922 19.1198 2.10897C18.9431 1.91872 18.7291 1.77263 18.4777 1.67072C18.2263 1.562 17.9511 1.50764 17.6522 1.50764C17.394 1.50764 17.1663 1.54501 16.9693 1.61976C16.7723 1.6877 16.5888 1.78283 16.4189 1.90513C16.2559 2.02743 16.0996 2.16672 15.9501 2.323C15.8006 2.47928 15.6409 2.64235 15.4711 2.81221L18.4573 5.79845C18.6272 5.63538 18.7869 5.47571 18.9363 5.31943C19.0858 5.16315 19.2149 5.00008 19.3236 4.83022C19.4391 4.66035 19.5275 4.4769 19.5886 4.27985C19.6566 4.08281 19.6905 3.85519 19.6905 3.59699ZM1.98714 19.2824L5.97219 18.2836L17.54 6.71573L14.5538 3.72949L2.98595 15.2973L1.98714 19.2824Z" fill="white"/>
</svg>
