<svg width="21" height="22" viewBox="0 0 21 22" fill="none" xmlns="http://www.w3.org/2000/svg">
<path d="M6.50133 16.8873C6.26352 16.8873 6.02911 16.9314 5.79809 17.0198C5.56707 17.1081 5.33605 17.2032 5.10504 17.3052C4.88081 17.4071 4.65319 17.5022 4.42218 17.5905C4.19116 17.6789 3.95675 17.723 3.71893 17.723C3.51509 17.723 3.32824 17.6823 3.15838 17.6007C2.98851 17.5124 2.83563 17.3901 2.69974 17.2338C2.61141 17.1319 2.50609 16.996 2.38379 16.8261C2.26828 16.6563 2.14598 16.4694 2.01688 16.2656C1.88778 16.0617 1.75868 15.8477 1.62959 15.6235C1.50049 15.3925 1.38498 15.1716 1.28306 14.961C1.18793 14.7436 1.1098 14.5397 1.04864 14.3495C0.987493 14.1592 0.956917 13.9996 0.956917 13.8705C0.956917 13.6259 1.01807 13.4084 1.14037 13.2182C1.26268 13.0211 1.41216 12.8445 1.58882 12.6882C1.77227 12.5251 1.96932 12.3723 2.17995 12.2296C2.39738 12.0869 2.59442 11.9374 2.77108 11.7811C2.95454 11.6181 3.10742 11.4482 3.22972 11.2715C3.35202 11.0881 3.41318 10.8774 3.41318 10.6396C3.41318 10.4086 3.35202 10.2014 3.22972 10.0179C3.10742 9.83446 2.95454 9.66459 2.77108 9.50832C2.58763 9.34525 2.39058 9.18897 2.17995 9.03949C1.96932 8.89001 1.77227 8.73373 1.58882 8.57066C1.40536 8.40079 1.25248 8.22074 1.13018 8.03049C1.00788 7.84024 0.946725 7.62281 0.946725 7.3782C0.946725 7.2559 0.977301 7.09962 1.03845 6.90937C1.1064 6.71912 1.19133 6.51528 1.29325 6.29786C1.39517 6.08043 1.51068 5.8596 1.63978 5.63538C1.77567 5.40436 1.90817 5.18693 2.03726 4.9831C2.17316 4.77246 2.30225 4.58221 2.42456 4.41235C2.54686 4.24248 2.65218 4.10999 2.74051 4.01486C2.8764 3.86538 3.02928 3.74987 3.19914 3.66834C3.3758 3.5868 3.56266 3.54603 3.7597 3.54603C3.99751 3.54603 4.22853 3.5902 4.45275 3.67853C4.67698 3.76686 4.9012 3.86538 5.12542 3.97409C5.34964 4.07601 5.57387 4.17114 5.79809 4.25947C6.02911 4.3478 6.26352 4.39196 6.50133 4.39196C6.80709 4.39196 7.06868 4.30024 7.28611 4.11678C7.51034 3.92653 7.64963 3.68192 7.70398 3.38296C7.76513 3.05002 7.82629 2.71709 7.88744 2.38415C7.94859 2.05121 8.00974 1.71828 8.07089 1.38534C8.12525 1.09997 8.24755 0.865552 8.4378 0.682097C8.63485 0.498642 8.87606 0.379736 9.16143 0.325379C9.43322 0.277816 9.7084 0.24724 9.98698 0.233651C10.2656 0.213267 10.5407 0.203075 10.8125 0.203075C11.0979 0.203075 11.3833 0.213267 11.6686 0.233651C11.954 0.254035 12.236 0.291406 12.5146 0.345763C12.8 0.40012 13.0344 0.519026 13.2178 0.702481C13.4013 0.885935 13.5202 1.12035 13.5745 1.40572C13.6357 1.73866 13.6934 2.0682 13.7478 2.39434C13.8022 2.72048 13.8599 3.05002 13.9211 3.38296C13.9754 3.67513 14.1147 3.91634 14.3389 4.10659C14.5632 4.29684 14.8248 4.39196 15.1237 4.39196C15.3615 4.39196 15.5959 4.3478 15.827 4.25947C16.058 4.17114 16.2856 4.07601 16.5098 3.97409C16.7408 3.87217 16.9719 3.77705 17.2029 3.68872C17.4339 3.60039 17.6683 3.55622 17.9061 3.55622C18.1167 3.55622 18.3036 3.60039 18.4667 3.68872C18.6365 3.77025 18.7894 3.88916 18.9253 4.04544C19.0136 4.14736 19.1156 4.28325 19.2311 4.45312C19.3534 4.62298 19.4791 4.80983 19.6082 5.01367C19.7373 5.21751 19.8664 5.43494 19.9955 5.66596C20.1246 5.89018 20.2367 6.111 20.3318 6.32843C20.4337 6.53907 20.5153 6.73951 20.5764 6.92976C20.6376 7.12001 20.6681 7.27968 20.6681 7.40878C20.6681 7.66018 20.607 7.881 20.4847 8.07125C20.3624 8.2615 20.2095 8.43816 20.026 8.60124C19.8494 8.75751 19.6523 8.90699 19.4349 9.04968C19.2243 9.19237 19.0272 9.34525 18.8438 9.50832C18.6671 9.66459 18.5176 9.83446 18.3953 10.0179C18.273 10.1946 18.2119 10.4018 18.2119 10.6396C18.2119 10.8706 18.273 11.0779 18.3953 11.2613C18.5176 11.4448 18.6705 11.6181 18.854 11.7811C19.0374 11.9374 19.2345 12.0903 19.4451 12.2398C19.6557 12.3892 19.8528 12.5489 20.0362 12.7188C20.2197 12.8819 20.3726 13.0585 20.4949 13.2488C20.6172 13.439 20.6783 13.6564 20.6783 13.901C20.6783 14.0369 20.6444 14.2 20.5764 14.3903C20.5153 14.5737 20.4337 14.7742 20.3318 14.9916C20.2299 15.209 20.111 15.4298 19.9751 15.6541C19.846 15.8783 19.7135 16.0923 19.5776 16.2962C19.4485 16.5 19.3194 16.6868 19.1903 16.8567C19.068 17.0266 18.9627 17.1625 18.8744 17.2644C18.7385 17.4139 18.5856 17.5294 18.4157 17.6109C18.2526 17.6924 18.0726 17.7332 17.8755 17.7332C17.6513 17.7332 17.4203 17.689 17.1825 17.6007C16.9515 17.5124 16.7205 17.4173 16.4894 17.3153C16.2584 17.2066 16.0274 17.1081 15.7964 17.0198C15.5654 16.9314 15.3411 16.8873 15.1237 16.8873C14.8248 16.8873 14.5937 16.9484 14.4307 17.0707C14.2676 17.193 14.1419 17.3527 14.0536 17.5498C13.9652 17.74 13.9007 17.954 13.8599 18.1919C13.8259 18.4229 13.7886 18.6471 13.7478 18.8645C13.7138 19.0412 13.6799 19.2144 13.6459 19.3843C13.6187 19.5474 13.5881 19.7172 13.5542 19.8939C13.4998 20.1861 13.3775 20.4239 13.1872 20.6073C12.997 20.784 12.7558 20.8995 12.4636 20.9539C12.1918 21.0014 11.9167 21.0354 11.6381 21.0558C11.3663 21.0694 11.0911 21.0762 10.8125 21.0762C10.5272 21.0762 10.2418 21.066 9.9564 21.0456C9.67103 21.0252 9.38905 20.9878 9.11047 20.9335C8.8251 20.8791 8.59068 20.7602 8.40723 20.5768C8.22377 20.3865 8.10487 20.1487 8.05051 19.8633C7.98936 19.5372 7.9316 19.211 7.87725 18.8849C7.82289 18.552 7.76513 18.2224 7.70398 17.8963C7.64963 17.6041 7.51034 17.3629 7.28611 17.1727C7.06189 16.9824 6.8003 16.8873 6.50133 16.8873ZM12.27 19.6697C12.2972 19.5202 12.3277 19.3367 12.3617 19.1193C12.3957 18.8951 12.433 18.6675 12.4738 18.4365C12.5146 18.2054 12.5587 17.9846 12.6063 17.774C12.6539 17.5633 12.7014 17.3935 12.749 17.2644C12.9392 16.7548 13.245 16.3471 13.6663 16.0414C14.0875 15.7356 14.5734 15.5827 15.1237 15.5827C15.3072 15.5827 15.5178 15.6167 15.7556 15.6846C16.0002 15.7458 16.2482 15.8205 16.4996 15.9089C16.7578 15.9972 17.0058 16.0889 17.2436 16.184C17.4815 16.2792 17.6921 16.3607 17.8755 16.4286C18.1949 16.0481 18.4769 15.6473 18.7215 15.226C18.9661 14.7979 19.1801 14.3563 19.3636 13.901V13.8909L17.8042 12.5659C17.5188 12.3281 17.298 12.0427 17.1417 11.7098C16.9854 11.37 16.9073 11.0133 16.9073 10.6396C16.9073 10.2659 16.9854 9.9092 17.1417 9.56947C17.3048 9.22974 17.529 8.94097 17.8144 8.70315L19.3534 7.41897V7.40878C19.3534 7.40198 19.3398 7.36461 19.3126 7.29667C19.2854 7.22193 19.2684 7.18116 19.2616 7.17436C19.0986 6.7531 18.9015 6.35221 18.6705 5.97171C18.4463 5.58442 18.1915 5.21411 17.9061 4.86079H17.8959L15.9798 5.55384C15.7081 5.64897 15.4295 5.69653 15.1441 5.69653C14.6821 5.69653 14.2574 5.58442 13.8701 5.3602C13.544 5.17674 13.2722 4.93214 13.0548 4.62638C12.8441 4.32062 12.7048 3.98429 12.6369 3.61738L12.2904 1.62995C11.8011 1.54841 11.3085 1.50764 10.8125 1.50764C10.5679 1.50764 10.3233 1.51784 10.0787 1.53822C9.8341 1.55181 9.59289 1.57559 9.35508 1.60956C9.29393 1.94929 9.23617 2.28563 9.18181 2.61857C9.12746 2.9515 9.06291 3.28444 8.98817 3.61738C8.92702 3.91634 8.8217 4.19492 8.67222 4.45312C8.52274 4.70452 8.33928 4.92194 8.12185 5.1054C7.90442 5.28885 7.65982 5.43494 7.38803 5.54365C7.11625 5.64557 6.82408 5.69653 6.51153 5.69653C6.20577 5.69653 5.917 5.64557 5.64521 5.54365H5.63502L3.7597 4.8506H3.74951C3.43696 5.23789 3.15498 5.64217 2.90358 6.06344C2.65218 6.47791 2.43815 6.91617 2.26149 7.3782V7.38839L3.82085 8.71335C4.10623 8.95116 4.32705 9.23993 4.48333 9.57966C4.63961 9.9126 4.71774 10.2659 4.71774 10.6396C4.71774 11.0133 4.63621 11.37 4.47314 11.7098C4.31686 12.0495 4.09604 12.3383 3.81066 12.5761L2.27168 13.8603V13.8705C2.27168 13.8773 2.28527 13.918 2.31245 13.9928C2.33962 14.0607 2.35661 14.0981 2.36341 14.1049C2.52648 14.5262 2.72012 14.9304 2.94435 15.3177C3.17536 15.6982 3.43356 16.0651 3.71893 16.4185H3.72913L5.64521 15.7254C5.917 15.6303 6.19558 15.5827 6.48095 15.5827C6.94298 15.5827 7.36765 15.6948 7.75494 15.919C8.08108 16.1025 8.34947 16.3471 8.56011 16.6529C8.77753 16.9586 8.92022 17.295 8.98817 17.6619L9.33469 19.6493C9.82391 19.7308 10.3165 19.7716 10.8125 19.7716C11.0571 19.7716 11.3017 19.7648 11.5463 19.7512C11.791 19.7308 12.0322 19.7037 12.27 19.6697ZM6.89882 10.6396C6.89882 10.0961 7.00074 9.58646 7.20458 9.11083C7.40842 8.63521 7.687 8.22074 8.04032 7.86742C8.39364 7.51409 8.80811 7.23552 9.28373 7.03168C9.75936 6.82784 10.269 6.72592 10.8125 6.72592C11.3561 6.72592 11.8657 6.82784 12.3413 7.03168C12.8169 7.23552 13.2314 7.51409 13.5847 7.86742C13.9381 8.22074 14.2166 8.63521 14.4205 9.11083C14.6243 9.58646 14.7262 10.0961 14.7262 10.6396C14.7262 11.1832 14.6243 11.6928 14.4205 12.1684C14.2166 12.644 13.9381 13.0585 13.5847 13.4118C13.2314 13.7652 12.8169 14.0437 12.3413 14.2476C11.8657 14.4514 11.3561 14.5533 10.8125 14.5533C10.269 14.5533 9.75936 14.4514 9.28373 14.2476C8.80811 14.0437 8.39364 13.7652 8.04032 13.4118C7.687 13.0585 7.40842 12.644 7.20458 12.1684C7.00074 11.6928 6.89882 11.1832 6.89882 10.6396ZM13.4217 10.6396C13.4217 10.2795 13.3537 9.94317 13.2178 9.63062C13.0819 9.31127 12.8951 9.03269 12.6573 8.79488C12.4195 8.55707 12.1409 8.37022 11.8215 8.23433C11.509 8.09843 11.1726 8.03049 10.8125 8.03049C10.4524 8.03049 10.1127 8.09843 9.79333 8.23433C9.48078 8.37022 9.2056 8.55707 8.96778 8.79488C8.72997 9.03269 8.54312 9.31127 8.40723 9.63062C8.27133 9.94317 8.20339 10.2795 8.20339 10.6396C8.20339 10.9997 8.27133 11.3395 8.40723 11.6588C8.54312 11.9714 8.72997 12.2466 8.96778 12.4844C9.2056 12.7222 9.48078 12.909 9.79333 13.0449C10.1127 13.1808 10.4524 13.2488 10.8125 13.2488C11.1726 13.2488 11.509 13.1808 11.8215 13.0449C12.1409 12.909 12.4195 12.7222 12.6573 12.4844C12.8951 12.2466 13.0819 11.9714 13.2178 11.6588C13.3537 11.3395 13.4217 10.9997 13.4217 10.6396Z" fill="white"/>
</svg>
