<svg width="20" height="21" viewBox="0 0 20 21" fill="none" xmlns="http://www.w3.org/2000/svg">
<g clip-path="url(#clip0_1606_1004)">
<path d="M18 11C18 11.276 17.901 11.513 17.7031 11.7109C17.5104 11.9036 17.276 12 17 12H16V13.0547C16 13.3828 15.9323 13.6953 15.7969 13.9922C15.6667 14.2891 15.4896 14.5495 15.2656 14.7734C15.0469 14.9922 14.7891 15.1693 14.4922 15.3047C14.1953 15.4349 13.8828 15.5 13.5547 15.5H4.44531C4.11719 15.5 3.80469 15.4349 3.50781 15.3047C3.21094 15.1693 2.95052 14.9922 2.72656 14.7734C2.50781 14.5495 2.33073 14.2891 2.19531 13.9922C2.0651 13.6953 2 13.3828 2 13.0547V7.94531C2 7.61719 2.0651 7.30469 2.19531 7.00781C2.33073 6.71094 2.50781 6.45312 2.72656 6.23438C2.95052 6.01042 3.21094 5.83333 3.50781 5.70312C3.80469 5.56771 4.11719 5.5 4.44531 5.5H13.5547C13.888 5.5 14.2005 5.56771 14.4922 5.70312C14.7891 5.83333 15.0469 6.01042 15.2656 6.23438C15.4896 6.45312 15.6667 6.71094 15.7969 7.00781C15.9271 7.30469 15.9948 7.61719 16 7.94531V8.29688V9H17C17.1354 9 17.263 9.02604 17.3828 9.07812C17.5026 9.13021 17.6094 9.20312 17.7031 9.29688C17.7969 9.39062 17.8698 9.4974 17.9219 9.61719C17.974 9.73698 18 9.86458 18 10V11ZM15 8C15 7.79688 14.9609 7.60417 14.8828 7.42188C14.8047 7.23958 14.6953 7.08073 14.5547 6.94531C14.4193 6.80469 14.2604 6.69531 14.0781 6.61719C13.8958 6.53906 13.7031 6.5 13.5 6.5H4.5C4.29688 6.5 4.10417 6.53906 3.92188 6.61719C3.73958 6.69531 3.57812 6.80469 3.4375 6.94531C3.30208 7.08073 3.19531 7.23958 3.11719 7.42188C3.03906 7.60417 3 7.79688 3 8V13C3 13.2031 3.03906 13.3958 3.11719 13.5781C3.19531 13.7604 3.30208 13.9219 3.4375 14.0625C3.57812 14.1979 3.73958 14.3047 3.92188 14.3828C4.10417 14.4609 4.29688 14.5 4.5 14.5H13.5C13.7031 14.5 13.8958 14.4609 14.0781 14.3828C14.2604 14.3047 14.4193 14.1979 14.5547 14.0625C14.6953 13.9219 14.8047 13.7604 14.8828 13.5781C14.9609 13.3958 15 13.2031 15 13V8ZM12.25 7.5C12.4583 7.5 12.6354 7.57292 12.7812 7.71875C12.9271 7.86458 13 8.04167 13 8.25V12.75C13 12.9583 12.9271 13.1354 12.7812 13.2812C12.6354 13.4271 12.4583 13.5 12.25 13.5H4.75C4.54167 13.5 4.36458 13.4271 4.21875 13.2812C4.07292 13.1354 4 12.9583 4 12.75V8.25C4 8.04167 4.07292 7.86458 4.21875 7.71875C4.36458 7.57292 4.54167 7.5 4.75 7.5H12.25Z" fill="white"/>
</g>
<defs>
<clipPath id="clip0_1606_1004">
<rect width="20" height="20" fill="white" transform="translate(0 0.5)"/>
</clipPath>
</defs>
</svg>
