<svg width="30" height="30" viewBox="0 0 30 30" fill="none" xmlns="http://www.w3.org/2000/svg">
<g clip-path="url(#clip0_1606_973)">
<path d="M27.084 22.3293C26.684 22.5385 26.2715 22.7228 25.8488 22.8812C24.5035 23.3846 23.0783 23.6411 21.6418 23.6383C16.0965 23.6383 11.266 19.8238 11.266 14.9289C11.2731 14.2724 11.4553 13.6296 11.7938 13.067C12.1322 12.5044 12.6147 12.0424 13.1914 11.7285C8.17578 11.9395 6.88672 17.166 6.88672 20.2281C6.88672 28.8859 14.866 29.7637 16.5852 29.7637C17.5121 29.7637 18.9102 29.4941 19.7492 29.2293L19.9027 29.1777C23.1315 28.0615 25.8841 25.8793 27.7074 22.9902C27.7633 22.9022 27.7882 22.7982 27.7783 22.6944C27.7684 22.5907 27.7241 22.4932 27.6526 22.4174C27.5811 22.3416 27.4864 22.2918 27.3834 22.2758C27.2804 22.2599 27.1751 22.2787 27.084 22.3293Z" fill="url(#paint0_linear_1606_973)"/>
<path opacity="0.35" d="M27.084 22.3293C26.684 22.5385 26.2715 22.7228 25.8488 22.8812C24.5035 23.3846 23.0783 23.6411 21.6418 23.6383C16.0965 23.6383 11.266 19.8238 11.266 14.9289C11.2731 14.2724 11.4553 13.6296 11.7938 13.067C12.1322 12.5044 12.6147 12.0424 13.1914 11.7285C8.17578 11.9395 6.88672 17.166 6.88672 20.2281C6.88672 28.8859 14.866 29.7637 16.5852 29.7637C17.5121 29.7637 18.9102 29.4941 19.7492 29.2293L19.9027 29.1777C23.1315 28.0615 25.8841 25.8793 27.7074 22.9902C27.7633 22.9022 27.7882 22.7982 27.7783 22.6944C27.7684 22.5907 27.7241 22.4932 27.6526 22.4174C27.5811 22.3416 27.4864 22.2918 27.3834 22.2758C27.2804 22.2599 27.1751 22.2787 27.084 22.3293Z" fill="url(#paint1_radial_1606_973)"/>
<path d="M12.3955 28.2916C11.3503 27.6429 10.4445 26.7928 9.73069 25.7908C8.91716 24.6762 8.35734 23.3972 8.09048 22.0433C7.82363 20.6894 7.85622 19.2936 8.18596 17.9537C8.51569 16.6137 9.13459 15.3622 9.99924 14.2867C10.8639 13.2113 11.9534 12.3381 13.1912 11.7283C13.5569 11.5561 14.1815 11.2443 15.0123 11.2596C15.5977 11.2638 16.1741 11.4036 16.6964 11.6679C17.2187 11.9322 17.6728 12.3139 18.0229 12.783C18.4961 13.4149 18.757 14.1804 18.7682 14.9697C18.7682 14.9451 21.6346 5.6416 9.39319 5.6416C4.24866 5.6416 0.0181899 10.5236 0.0181899 14.8068C-0.00210241 17.0726 0.48269 19.3144 1.43733 21.3693C2.99748 24.6982 5.72575 27.3381 9.10408 28.7879C12.4824 30.2377 16.2755 30.3964 19.7631 29.2338C18.542 29.6188 17.2518 29.7344 15.9817 29.5725C14.7116 29.4107 13.4916 28.9753 12.4061 28.2963L12.3955 28.2916Z" fill="url(#paint2_linear_1606_973)"/>
<path opacity="0.41" d="M12.3955 28.2916C11.3503 27.6429 10.4445 26.7928 9.73069 25.7908C8.91716 24.6762 8.35734 23.3972 8.09048 22.0433C7.82363 20.6894 7.85622 19.2936 8.18596 17.9537C8.51569 16.6137 9.13459 15.3622 9.99924 14.2867C10.8639 13.2113 11.9534 12.3381 13.1912 11.7283C13.5569 11.5561 14.1815 11.2443 15.0123 11.2596C15.5977 11.2638 16.1741 11.4036 16.6964 11.6679C17.2187 11.9322 17.6728 12.3139 18.0229 12.783C18.4961 13.4149 18.757 14.1804 18.7682 14.9697C18.7682 14.9451 21.6346 5.6416 9.39319 5.6416C4.24866 5.6416 0.0181899 10.5236 0.0181899 14.8068C-0.00210241 17.0726 0.48269 19.3144 1.43733 21.3693C2.99748 24.6982 5.72575 27.3381 9.10408 28.7879C12.4824 30.2377 16.2755 30.3964 19.7631 29.2338C18.542 29.6188 17.2518 29.7344 15.9817 29.5725C14.7116 29.4107 13.4916 28.9753 12.4061 28.2963L12.3955 28.2916Z" fill="url(#paint3_radial_1606_973)"/>
<path d="M17.8561 17.4445C17.7611 17.5676 17.4693 17.7375 17.4693 18.1078C17.4693 18.4137 17.6686 18.7078 18.0225 18.9551C19.7076 20.1269 22.8846 19.9723 22.8928 19.9723C24.1414 19.9693 25.3664 19.6313 26.44 18.9937C27.5231 18.3614 28.422 17.4568 29.0475 16.3697C29.673 15.2827 30.0035 14.051 30.006 12.7969C30.0365 10.1707 29.0685 8.42461 28.6771 7.65117C26.1939 2.79375 20.8338 7.34346e-08 15.0049 7.34346e-08C11.0629 -0.000389715 7.27923 1.55097 4.47217 4.31856C1.66511 7.08614 0.0603167 10.8475 0.00488281 14.7891C0.0611328 10.507 4.31738 7.04883 9.37988 7.04883C9.79004 7.04883 12.1291 7.08867 14.3018 8.2289C16.2166 9.23437 17.2197 10.4484 17.917 11.652C18.6412 12.9023 18.7701 14.482 18.7701 15.1113C18.7701 15.7406 18.449 16.6734 17.8561 17.4445Z" fill="url(#paint4_radial_1606_973)"/>
<path d="M17.8561 17.4445C17.7611 17.5676 17.4693 17.7375 17.4693 18.1078C17.4693 18.4137 17.6686 18.7078 18.0225 18.9551C19.7076 20.1269 22.8846 19.9723 22.8928 19.9723C24.1414 19.9693 25.3664 19.6313 26.44 18.9937C27.5231 18.3614 28.422 17.4568 29.0475 16.3697C29.673 15.2827 30.0035 14.051 30.006 12.7969C30.0365 10.1707 29.0685 8.42461 28.6771 7.65117C26.1939 2.79375 20.8338 7.34346e-08 15.0049 7.34346e-08C11.0629 -0.000389715 7.27923 1.55097 4.47217 4.31856C1.66511 7.08614 0.0603167 10.8475 0.00488281 14.7891C0.0611328 10.507 4.31738 7.04883 9.37988 7.04883C9.79004 7.04883 12.1291 7.08867 14.3018 8.2289C16.2166 9.23437 17.2197 10.4484 17.917 11.652C18.6412 12.9023 18.7701 14.482 18.7701 15.1113C18.7701 15.7406 18.449 16.6734 17.8561 17.4445Z" fill="url(#paint5_radial_1606_973)"/>
</g>
<defs>
<linearGradient id="paint0_linear_1606_973" x1="6.88672" y1="20.7484" x2="27.7859" y2="20.7484" gradientUnits="userSpaceOnUse">
<stop stop-color="#0C59A4"/>
<stop offset="1" stop-color="#114A8B"/>
</linearGradient>
<radialGradient id="paint1_radial_1606_973" cx="0" cy="0" r="1" gradientUnits="userSpaceOnUse" gradientTransform="translate(18.4297 20.9131) scale(11.1773 10.6185)">
<stop offset="0.72" stop-opacity="0"/>
<stop offset="0.95" stop-opacity="0.53"/>
<stop offset="1"/>
</radialGradient>
<linearGradient id="paint2_linear_1606_973" x1="17.9045" y1="11.6826" x2="4.85099" y2="25.901" gradientUnits="userSpaceOnUse">
<stop stop-color="#1B9DE2"/>
<stop offset="0.16" stop-color="#1595DF"/>
<stop offset="0.67" stop-color="#0680D7"/>
<stop offset="1" stop-color="#0078D4"/>
</linearGradient>
<radialGradient id="paint3_radial_1606_973" cx="0" cy="0" r="1" gradientUnits="userSpaceOnUse" gradientTransform="translate(8.27809 23.3215) rotate(-81.3844) scale(16.8078 13.579)">
<stop offset="0.76" stop-opacity="0"/>
<stop offset="0.95" stop-opacity="0.5"/>
<stop offset="1"/>
</radialGradient>
<radialGradient id="paint4_radial_1606_973" cx="0" cy="0" r="1" gradientUnits="userSpaceOnUse" gradientTransform="translate(3.03564 5.55197) rotate(92.2906) scale(23.7412 50.5639)">
<stop stop-color="#35C1F1"/>
<stop offset="0.11" stop-color="#34C1ED"/>
<stop offset="0.23" stop-color="#2FC2DF"/>
<stop offset="0.31" stop-color="#2BC3D2"/>
<stop offset="0.67" stop-color="#36C752"/>
</radialGradient>
<radialGradient id="paint5_radial_1606_973" cx="0" cy="0" r="1" gradientUnits="userSpaceOnUse" gradientTransform="translate(28.1383 9.07103) rotate(73.7398) scale(11.407 9.27619)">
<stop stop-color="#66EB6E"/>
<stop offset="1" stop-color="#66EB6E" stop-opacity="0"/>
</radialGradient>
<clipPath id="clip0_1606_973">
<rect width="30" height="30" fill="white" transform="translate(0.0078125)"/>
</clipPath>
</defs>
</svg>
