<svg width="20" height="21" viewBox="0 0 20 21" fill="none" xmlns="http://www.w3.org/2000/svg">
<g clip-path="url(#clip0_1606_1002)">
<path d="M14 16.7422C14 16.6536 14.0156 16.5833 14.0469 16.5312C14.0833 16.474 14.1302 16.4141 14.1875 16.3516C14.2604 16.2786 14.3385 16.2109 14.4219 16.1484C14.5052 16.0807 14.5859 16.0104 14.6641 15.9375C15.0391 15.5938 15.3724 15.2135 15.6641 14.7969C15.9557 14.375 16.2005 13.9297 16.3984 13.4609C16.5964 12.9922 16.7448 12.5078 16.8438 12.0078C16.9479 11.5078 17 11.0052 17 10.5C17 10 16.9479 9.5 16.8438 9C16.7448 8.49479 16.5938 8.00781 16.3906 7.53906C16.1927 7.0651 15.9479 6.61719 15.6562 6.19531C15.3698 5.77344 15.0391 5.39323 14.6641 5.05469C14.5859 4.98177 14.5052 4.91406 14.4219 4.85156C14.3385 4.78385 14.2604 4.71354 14.1875 4.64062C14.125 4.57812 14.0781 4.52083 14.0469 4.46875C14.0156 4.41667 14 4.34375 14 4.25C14 4.10938 14.0469 3.99219 14.1406 3.89844C14.2396 3.80469 14.3594 3.75781 14.5 3.75781C14.5625 3.75781 14.6172 3.76823 14.6641 3.78906C14.7109 3.80469 14.7604 3.83073 14.8125 3.86719C15.0469 4.01823 15.2786 4.21094 15.5078 4.44531C15.737 4.67969 15.9531 4.93229 16.1562 5.20312C16.3646 5.46875 16.5547 5.74219 16.7266 6.02344C16.8984 6.30469 17.0443 6.57031 17.1641 6.82031C17.4401 7.39844 17.6484 7.9974 17.7891 8.61719C17.9297 9.23177 18 9.85938 18 10.5C18 11.1354 17.9297 11.7656 17.7891 12.3906C17.6484 13.0104 17.4401 13.6068 17.1641 14.1797C17.0443 14.4245 16.8984 14.6901 16.7266 14.9766C16.5547 15.2578 16.3646 15.5339 16.1562 15.8047C15.9479 16.0703 15.7292 16.3203 15.5 16.5547C15.2708 16.7891 15.0417 16.9818 14.8125 17.1328C14.7552 17.1693 14.7031 17.1979 14.6562 17.2188C14.6146 17.2344 14.5625 17.2422 14.5 17.2422C14.3646 17.2422 14.2474 17.1927 14.1484 17.0938C14.0495 16.9948 14 16.8776 14 16.7422ZM5.29688 13.5H3.5C3.29688 13.5 3.10417 13.4609 2.92188 13.3828C2.73958 13.3047 2.57812 13.1979 2.4375 13.0625C2.30208 12.9219 2.19531 12.7604 2.11719 12.5781C2.03906 12.3958 2 12.2031 2 12V9C2 8.79688 2.03906 8.60417 2.11719 8.42188C2.19531 8.23958 2.30208 8.08073 2.4375 7.94531C2.57812 7.80469 2.73958 7.69531 2.92188 7.61719C3.10417 7.53906 3.29688 7.5 3.5 7.5H5.29688L7.71875 5.07031C7.79167 4.9974 7.8724 4.94531 7.96094 4.91406C8.05469 4.8776 8.15104 4.85938 8.25 4.85938C8.46354 4.85938 8.64062 4.92969 8.78125 5.07031C8.92708 5.21094 9 5.38802 9 5.60156V15.3984C9 15.5026 8.97917 15.599 8.9375 15.6875C8.90104 15.776 8.84635 15.8568 8.77344 15.9297C8.70573 15.9974 8.625 16.0521 8.53125 16.0938C8.44271 16.1302 8.34896 16.1484 8.25 16.1484C8.04167 16.1484 7.86458 16.0755 7.71875 15.9297L5.29688 13.5ZM12.0312 14.9453C12.0312 14.8568 12.0443 14.7891 12.0703 14.7422C12.1016 14.6953 12.1458 14.638 12.2031 14.5703C12.4896 14.2474 12.7448 13.9375 12.9688 13.6406C13.1927 13.3438 13.3802 13.0391 13.5312 12.7266C13.6823 12.4089 13.7969 12.0703 13.875 11.7109C13.9583 11.3516 14 10.9479 14 10.5C14 10.0521 13.9583 9.64844 13.875 9.28906C13.7969 8.92969 13.6823 8.59375 13.5312 8.28125C13.3802 7.96354 13.1927 7.65625 12.9688 7.35938C12.7448 7.0625 12.4896 6.7526 12.2031 6.42969C12.1458 6.36198 12.1016 6.30469 12.0703 6.25781C12.0443 6.21094 12.0312 6.14323 12.0312 6.05469C12.0312 5.91927 12.0807 5.80469 12.1797 5.71094C12.2839 5.61198 12.4036 5.5625 12.5391 5.5625C12.6172 5.5625 12.6771 5.57292 12.7188 5.59375C12.7604 5.60938 12.8125 5.64062 12.875 5.6875C13.0312 5.80729 13.1849 5.95573 13.3359 6.13281C13.4922 6.30469 13.638 6.48958 13.7734 6.6875C13.9141 6.88542 14.0417 7.08854 14.1562 7.29688C14.2708 7.5 14.3672 7.69271 14.4453 7.875C14.8151 8.70833 15 9.58333 15 10.5C15 11.4167 14.8151 12.2917 14.4453 13.125C14.3724 13.2917 14.276 13.4818 14.1562 13.6953C14.0417 13.9036 13.9141 14.112 13.7734 14.3203C13.6328 14.5234 13.4844 14.7135 13.3281 14.8906C13.1771 15.0677 13.026 15.2083 12.875 15.3125C12.8177 15.349 12.763 15.3802 12.7109 15.4062C12.6641 15.4271 12.6068 15.4375 12.5391 15.4375C12.4036 15.4375 12.2839 15.3906 12.1797 15.2969C12.0807 15.1979 12.0312 15.0807 12.0312 14.9453ZM8 14.7891V6.20312L5.85156 8.35156C5.7526 8.45052 5.63542 8.5 5.5 8.5H3.5C3.36458 8.5 3.2474 8.54948 3.14844 8.64844C3.04948 8.7474 3 8.86458 3 9V12C3 12.1354 3.04948 12.2526 3.14844 12.3516C3.2474 12.4505 3.36458 12.5 3.5 12.5H5.5C5.63542 12.5 5.7526 12.5495 5.85156 12.6484L8 14.7891ZM10.0938 13.0391C10.0938 12.9661 10.1016 12.9089 10.1172 12.8672C10.138 12.8255 10.1693 12.776 10.2109 12.7188C10.3307 12.5365 10.4401 12.362 10.5391 12.1953C10.638 12.0234 10.7214 11.8516 10.7891 11.6797C10.8568 11.5026 10.9089 11.3203 10.9453 11.1328C10.9818 10.9401 11 10.7292 11 10.5C11 10.276 10.9818 10.0677 10.9453 9.875C10.9089 9.68229 10.8568 9.5 10.7891 9.32812C10.7214 9.15104 10.638 8.97917 10.5391 8.8125C10.4401 8.64062 10.3307 8.46354 10.2109 8.28125C10.1693 8.22396 10.138 8.17448 10.1172 8.13281C10.1016 8.09115 10.0938 8.03385 10.0938 7.96094C10.0938 7.82552 10.1432 7.70833 10.2422 7.60938C10.3411 7.51042 10.4583 7.46094 10.5938 7.46094C10.6823 7.46094 10.7552 7.47656 10.8125 7.50781C10.8698 7.53906 10.9271 7.58594 10.9844 7.64844C11.151 7.83073 11.2969 8.03646 11.4219 8.26562C11.5469 8.48958 11.651 8.72917 11.7344 8.98438C11.8229 9.23438 11.888 9.48958 11.9297 9.75C11.9766 10.0104 12 10.2604 12 10.5C12 10.7292 11.9766 10.9766 11.9297 11.2422C11.888 11.5026 11.8229 11.763 11.7344 12.0234C11.651 12.2786 11.5443 12.5234 11.4141 12.7578C11.2891 12.987 11.1458 13.1849 10.9844 13.3516C10.875 13.4714 10.7448 13.5312 10.5938 13.5312C10.4583 13.5312 10.3411 13.4844 10.2422 13.3906C10.1432 13.2917 10.0938 13.1745 10.0938 13.0391Z" fill="white"/>
</g>
<defs>
<clipPath id="clip0_1606_1002">
<rect width="20" height="20" fill="white" transform="translate(0 0.5)"/>
</clipPath>
</defs>
</svg>
