<svg width="20" height="21" viewBox="0 0 20 21" fill="none" xmlns="http://www.w3.org/2000/svg">
<g clip-path="url(#clip0_1606_1000)">
<path d="M10 5.5C9.4375 5.5 8.88021 5.55729 8.32812 5.67188C7.78125 5.78125 7.25 5.94531 6.73438 6.16406C6.21875 6.3776 5.72656 6.64062 5.25781 6.95312C4.78906 7.26562 4.35677 7.6224 3.96094 8.02344C3.76302 8.22135 3.58594 8.42969 3.42969 8.64844C3.27344 8.86198 3.10677 9.07292 2.92969 9.28125C2.86719 9.35417 2.80729 9.40885 2.75 9.44531C2.69271 9.48177 2.61458 9.5 2.51562 9.5C2.375 9.5 2.25521 9.45312 2.15625 9.35938C2.0625 9.26042 2.01562 9.14062 2.01562 9C2.01562 8.90104 2.04427 8.80729 2.10156 8.71875C2.51302 8.0625 3.01042 7.47396 3.59375 6.95312C4.18229 6.43229 4.82292 5.98958 5.51562 5.625C6.20833 5.26042 6.9349 4.98177 7.69531 4.78906C8.46094 4.59635 9.22917 4.5 10 4.5C10.7656 4.5 11.5312 4.59635 12.2969 4.78906C13.0625 4.98177 13.7891 5.26042 14.4766 5.625C15.1693 5.98958 15.8073 6.43229 16.3906 6.95312C16.9792 7.47396 17.4818 8.0625 17.8984 8.71875C17.9557 8.80729 17.9844 8.90104 17.9844 9C17.9844 9.14062 17.9349 9.26042 17.8359 9.35938C17.7422 9.45312 17.625 9.5 17.4844 9.5C17.3958 9.5 17.3177 9.48177 17.25 9.44531C17.1875 9.40365 17.1276 9.34896 17.0703 9.28125C17.013 9.20833 16.9583 9.13542 16.9062 9.0625C16.8594 8.98438 16.8073 8.90885 16.75 8.83594C16.6406 8.6901 16.526 8.55208 16.4062 8.42188C16.2865 8.28646 16.1641 8.15365 16.0391 8.02344C15.638 7.6224 15.2031 7.26562 14.7344 6.95312C14.2708 6.64062 13.7812 6.3776 13.2656 6.16406C12.7552 5.94531 12.224 5.78125 11.6719 5.67188C11.1198 5.55729 10.5625 5.5 10 5.5ZM10 8.5C9.61458 8.5 9.23177 8.54167 8.85156 8.625C8.47135 8.70833 8.10417 8.83073 7.75 8.99219C7.40104 9.14844 7.06771 9.34115 6.75 9.57031C6.4375 9.79948 6.15365 10.0573 5.89844 10.3438C5.77344 10.4844 5.65885 10.6328 5.55469 10.7891C5.45573 10.9453 5.34896 11.099 5.23438 11.25C5.17188 11.3281 5.10938 11.3906 5.04688 11.4375C4.98958 11.4792 4.90885 11.5 4.80469 11.5C4.66927 11.5 4.55208 11.4505 4.45312 11.3516C4.35417 11.2526 4.30469 11.1354 4.30469 11C4.30469 10.9167 4.32552 10.8333 4.36719 10.75C4.63281 10.2552 4.97135 9.80729 5.38281 9.40625C5.79427 9.00521 6.25 8.66406 6.75 8.38281C7.25 8.10156 7.77604 7.88542 8.32812 7.73438C8.88542 7.57812 9.44271 7.5 10 7.5C10.5521 7.5 11.1068 7.57812 11.6641 7.73438C12.2214 7.88542 12.75 8.10156 13.25 8.38281C13.75 8.66406 14.2057 9.00521 14.6172 9.40625C15.0286 9.80729 15.3672 10.2552 15.6328 10.75C15.6745 10.8333 15.6953 10.9167 15.6953 11C15.6953 11.1354 15.6458 11.2526 15.5469 11.3516C15.4479 11.4505 15.3307 11.5 15.1953 11.5C15.0911 11.5 15.0078 11.4792 14.9453 11.4375C14.888 11.3906 14.8281 11.3281 14.7656 11.25C14.651 11.099 14.5417 10.9453 14.4375 10.7891C14.3385 10.6328 14.2266 10.4844 14.1016 10.3438C13.8464 10.0573 13.5599 9.79948 13.2422 9.57031C12.9297 9.34115 12.5964 9.14844 12.2422 8.99219C11.8932 8.83073 11.5286 8.70833 11.1484 8.625C10.7682 8.54167 10.3854 8.5 10 8.5ZM10 11.5C9.70833 11.5 9.42969 11.5417 9.16406 11.625C8.89844 11.7031 8.64062 11.8177 8.39062 11.9688C8.25 12.0573 8.1276 12.1458 8.02344 12.2344C7.92448 12.3229 7.83333 12.4167 7.75 12.5156C7.67188 12.6146 7.59635 12.7214 7.52344 12.8359C7.45052 12.9453 7.3724 13.0703 7.28906 13.2109C7.23698 13.2995 7.17448 13.3698 7.10156 13.4219C7.02865 13.474 6.9401 13.5 6.83594 13.5C6.69531 13.5 6.57552 13.4505 6.47656 13.3516C6.38281 13.2526 6.33594 13.1328 6.33594 12.9922C6.33594 12.9245 6.35156 12.8542 6.38281 12.7812C6.53385 12.4479 6.73958 12.1406 7 11.8594C7.26042 11.5781 7.55208 11.3385 7.875 11.1406C8.19792 10.9375 8.54167 10.7812 8.90625 10.6719C9.27083 10.5573 9.63542 10.5 10 10.5C10.375 10.5 10.7448 10.5547 11.1094 10.6641C11.474 10.7734 11.8151 10.9271 12.1328 11.125C12.4557 11.3229 12.7448 11.5625 13 11.8438C13.2552 12.125 13.4609 12.4375 13.6172 12.7812C13.6484 12.8542 13.6641 12.9245 13.6641 12.9922C13.6641 13.1276 13.6146 13.2474 13.5156 13.3516C13.4167 13.4505 13.2995 13.5 13.1641 13.5C13.0599 13.5 12.9714 13.474 12.8984 13.4219C12.8255 13.3698 12.763 13.2995 12.7109 13.2109C12.6276 13.0703 12.5495 12.9453 12.4766 12.8359C12.4036 12.7214 12.3255 12.6146 12.2422 12.5156C12.1589 12.4167 12.0651 12.3229 11.9609 12.2344C11.862 12.1458 11.7422 12.0573 11.6016 11.9688C11.3568 11.8177 11.099 11.7031 10.8281 11.625C10.5625 11.5417 10.2865 11.5 10 11.5ZM8.75 14.5C8.75 14.3281 8.78385 14.1667 8.85156 14.0156C8.91927 13.8646 9.00781 13.7344 9.11719 13.625C9.23177 13.5104 9.36458 13.4193 9.51562 13.3516C9.66667 13.2839 9.82812 13.25 10 13.25C10.1719 13.25 10.3333 13.2839 10.4844 13.3516C10.6354 13.4193 10.7656 13.5104 10.875 13.625C10.9896 13.7344 11.0807 13.8646 11.1484 14.0156C11.2161 14.1667 11.25 14.3281 11.25 14.5C11.25 14.6719 11.2161 14.8333 11.1484 14.9844C11.0807 15.1354 10.9896 15.2682 10.875 15.3828C10.7656 15.4922 10.6354 15.5807 10.4844 15.6484C10.3333 15.7161 10.1719 15.75 10 15.75C9.82812 15.75 9.66667 15.7161 9.51562 15.6484C9.36458 15.5807 9.23177 15.4922 9.11719 15.3828C9.00781 15.2682 8.91927 15.1354 8.85156 14.9844C8.78385 14.8333 8.75 14.6719 8.75 14.5Z" fill="white"/>
</g>
<defs>
<clipPath id="clip0_1606_1000">
<rect width="20" height="20" fill="white" transform="translate(0 0.5)"/>
</clipPath>
</defs>
</svg>
