<svg width="18" height="18" viewBox="0 0 18 18" fill="none" xmlns="http://www.w3.org/2000/svg">
<path d="M2.25 4.375C2.25 3.82272 2.69772 3.375 3.25 3.375H7.00972C7.20715 3.375 7.40016 3.43344 7.56442 3.54295L8.74808 4.33205C8.91234 4.44156 9.10535 4.5 9.30278 4.5H14.75C15.3023 4.5 15.75 4.94772 15.75 5.5V13.625C15.75 14.1773 15.3023 14.625 14.75 14.625H3.25C2.69772 14.625 2.25 14.1773 2.25 13.625V4.375Z" fill="#F9B919"/>
<path d="M7.3125 6.75L8.70711 5.35539C8.89464 5.16786 9.149 5.0625 9.41421 5.0625H14.75C15.3023 5.0625 15.75 5.51022 15.75 6.0625V13.0625C15.75 13.6148 15.3023 14.0625 14.75 14.0625H3.25C2.69772 14.0625 2.25 13.6148 2.25 13.0625V7.75C2.25 7.19772 2.69772 6.75 3.25 6.75H7.3125Z" fill="#FFEDB9"/>
<path d="M7.59375 7.3125L8.98836 5.91789C9.17589 5.73036 9.43025 5.625 9.69546 5.625H14.75C15.3023 5.625 15.75 6.07272 15.75 6.625V13.0625C15.75 13.6148 15.3023 14.0625 14.75 14.0625H3.25C2.69772 14.0625 2.25 13.6148 2.25 13.0625V8.3125C2.25 7.76022 2.69772 7.3125 3.25 7.3125H7.59375Z" fill="url(#paint0_linear_310_5483)"/>
<defs>
<linearGradient id="paint0_linear_310_5483" x1="9" y1="5.0625" x2="15.75" y2="14.0625" gradientUnits="userSpaceOnUse">
<stop stop-color="#FFE79F"/>
<stop offset="1" stop-color="#FFC937"/>
</linearGradient>
</defs>
</svg>
