<svg width="18" height="18" viewBox="0 0 18 18" fill="none" xmlns="http://www.w3.org/2000/svg">
<path d="M2.0769 4.46142C2.0769 3.90914 2.52462 3.46143 3.0769 3.46143H7.42278C7.55 3.46143 7.67605 3.4857 7.79417 3.53295L9.16733 4.08221C9.28545 4.12946 9.4115 4.15373 9.53872 4.15373H14.9231C15.4753 4.15373 15.9231 4.60145 15.9231 5.15373V13.5383C15.9231 14.0906 15.4753 14.5383 14.9231 14.5383H3.0769C2.52462 14.5383 2.0769 14.0906 2.0769 13.5383V4.46142Z" fill="#022F57"/>
<path d="M7.44229 6.05747L8.89914 4.89198C9.07646 4.75013 9.29677 4.67285 9.52384 4.67285H14.9231C15.4753 4.67285 15.9231 5.12057 15.9231 5.67285L15.9231 12.6382C15.9231 13.1905 15.4753 13.6382 14.9231 13.6382H3.0769C2.52462 13.6382 2.0769 13.1905 2.0769 12.6382V7.05747C2.0769 6.50518 2.52462 6.05747 3.0769 6.05747H7.44229Z" fill="#B3E5FF"/>
<path d="M7.55767 6.23056L9.07582 5.05522C9.25105 4.91956 9.46638 4.84595 9.68799 4.84595H14.9231C15.4753 4.84595 15.9231 5.29366 15.9231 5.84595L15.9231 12.9844C15.9231 13.5367 15.4753 13.9844 14.9231 13.9844H3.0769C2.52462 13.9844 2.0769 13.5367 2.0769 12.9844V7.23056C2.0769 6.67828 2.52462 6.23056 3.0769 6.23056H7.55767Z" fill="url(#paint0_linear_310_6435)"/>
<path d="M2.0769 13.1538H15.9231V13.5384C15.9231 14.0907 15.4753 14.5384 14.9231 14.5384H3.0769C2.52462 14.5384 2.0769 14.0907 2.0769 13.5384V13.1538Z" fill="#022F57"/>
<path d="M14.5383 13.8C14.5383 13.6343 14.6726 13.5 14.8383 13.5H14.9306C15.0963 13.5 15.2306 13.6343 15.2306 13.8V13.8923C15.2306 14.058 15.0963 14.1923 14.9306 14.1923H14.8383C14.6726 14.1923 14.5383 14.058 14.5383 13.8923V13.8Z" fill="url(#paint1_linear_310_6435)"/>
<path d="M13.5 13.8C13.5 13.6343 13.6343 13.5 13.8 13.5H13.8923C14.058 13.5 14.1923 13.6343 14.1923 13.8V13.8923C14.1923 14.058 14.058 14.1923 13.8923 14.1923H13.8C13.6343 14.1923 13.5 14.058 13.5 13.8923V13.8Z" fill="url(#paint2_linear_310_6435)"/>
<path d="M3.11548 7.76929C3.11548 7.49315 3.33934 7.26929 3.61548 7.26929H4.00009C4.27624 7.26929 4.50009 7.49314 4.50009 7.76929V8.1539C4.50009 8.43004 4.27624 8.6539 4.00009 8.6539H3.61548C3.33934 8.6539 3.11548 8.43004 3.11548 8.1539V7.76929Z" fill="url(#paint3_linear_310_6435)"/>
<path d="M3.11548 9.84619C3.11548 9.57005 3.33934 9.34619 3.61548 9.34619H4.00009C4.27624 9.34619 4.50009 9.57005 4.50009 9.84619V10.2308C4.50009 10.5069 4.27624 10.7308 4.00009 10.7308H3.61548C3.33934 10.7308 3.11548 10.5069 3.11548 10.2308V9.84619Z" fill="url(#paint4_linear_310_6435)"/>
<defs>
<linearGradient id="paint0_linear_310_6435" x1="7.61537" y1="8.30749" x2="11.4961" y2="16.608" gradientUnits="userSpaceOnUse">
<stop stop-color="#93D2F2"/>
<stop offset="1" stop-color="#038FEF"/>
</linearGradient>
<linearGradient id="paint1_linear_310_6435" x1="14.7691" y1="13.6731" x2="15.2306" y2="14.1923" gradientUnits="userSpaceOnUse">
<stop stop-color="white"/>
<stop offset="1" stop-color="#F3ECEC"/>
</linearGradient>
<linearGradient id="paint2_linear_310_6435" x1="13.7308" y1="13.6731" x2="14.1923" y2="14.1923" gradientUnits="userSpaceOnUse">
<stop stop-color="white"/>
<stop offset="1" stop-color="#F3ECEC"/>
</linearGradient>
<linearGradient id="paint3_linear_310_6435" x1="3.57702" y1="7.61544" x2="4.50009" y2="8.6539" gradientUnits="userSpaceOnUse">
<stop stop-color="white"/>
<stop offset="1" stop-color="#F3ECEC"/>
</linearGradient>
<linearGradient id="paint4_linear_310_6435" x1="3.57702" y1="9.69235" x2="4.50009" y2="10.7308" gradientUnits="userSpaceOnUse">
<stop stop-color="white"/>
<stop offset="1" stop-color="#F3ECEC"/>
</linearGradient>
</defs>
</svg>
