<svg width="18" height="18" viewBox="0 0 18 18" fill="none" xmlns="http://www.w3.org/2000/svg">
<path d="M2.0769 4.46142C2.0769 3.90914 2.52462 3.46143 3.0769 3.46143H7.42278C7.55 3.46143 7.67605 3.4857 7.79417 3.53295L9.16733 4.08221C9.28545 4.12946 9.4115 4.15373 9.53872 4.15373H14.9231C15.4753 4.15373 15.9231 4.60145 15.9231 5.15373V13.5383C15.9231 14.0906 15.4753 14.5383 14.9231 14.5383H3.0769C2.52462 14.5383 2.0769 14.0906 2.0769 13.5383V4.46142Z" fill="#A7512A"/>
<path d="M7.44229 6.05747L8.89914 4.89198C9.07646 4.75013 9.29677 4.67285 9.52384 4.67285H14.9231C15.4753 4.67285 15.9231 5.12057 15.9231 5.67285L15.9231 12.6382C15.9231 13.1905 15.4753 13.6382 14.9231 13.6382H3.0769C2.52462 13.6382 2.0769 13.1905 2.0769 12.6382V7.05747C2.0769 6.50518 2.52462 6.05747 3.0769 6.05747H7.44229Z" fill="#FFA68A"/>
<path d="M7.55767 6.23056L9.07582 5.05522C9.25105 4.91956 9.46638 4.84595 9.68799 4.84595H14.9231C15.4753 4.84595 15.9231 5.29366 15.9231 5.84595L15.9231 12.9844C15.9231 13.5367 15.4753 13.9844 14.9231 13.9844H3.0769C2.52462 13.9844 2.0769 13.5367 2.0769 12.9844V7.23056C2.0769 6.67828 2.52462 6.23056 3.0769 6.23056H7.55767Z" fill="url(#paint0_linear_310_7218)"/>
<path d="M9.2146 6.93051C9.15806 6.91435 9.09663 6.92408 9.04905 6.95671C9.00147 6.98934 8.97339 7.041 8.97339 7.09593V10.5245C8.75571 10.3305 8.46016 10.2113 8.13463 10.2113C7.46552 10.2113 6.9231 10.715 6.9231 11.3363C6.9231 11.9576 7.46552 12.4613 8.13463 12.4613C8.80375 12.4613 9.34617 11.9576 9.34617 11.3363C9.34617 11.3154 9.34556 11.2947 9.34435 11.2741C9.34555 11.2661 9.34617 11.258 9.34617 11.2498V8.71488L11.528 9.33828C11.5846 9.35443 11.646 9.34471 11.6936 9.31207C11.7412 9.27944 11.7693 9.22778 11.7693 9.17285V8.29956C11.7693 7.91965 11.5024 7.58417 11.1114 7.47244L9.2146 6.93051Z" fill="url(#paint1_linear_310_7218)"/>
<defs>
<linearGradient id="paint0_linear_310_7218" x1="2.76921" y1="5.53826" x2="9.27308" y2="18.007" gradientUnits="userSpaceOnUse">
<stop stop-color="#F2885F"/>
<stop offset="1" stop-color="#9A6FA7"/>
</linearGradient>
<linearGradient id="paint1_linear_310_7218" x1="8.53848" y1="8.30747" x2="12.256" y2="11.9669" gradientUnits="userSpaceOnUse">
<stop offset="0.157588" stop-color="white"/>
<stop offset="0.644219" stop-color="#F3ECEC"/>
</linearGradient>
</defs>
</svg>
