<svg width="18" height="18" viewBox="0 0 18 18" fill="none" xmlns="http://www.w3.org/2000/svg">
<path d="M2.0769 4.46142C2.0769 3.90914 2.52462 3.46143 3.0769 3.46143H7.42278C7.55 3.46143 7.67605 3.4857 7.79417 3.53295L9.16733 4.08221C9.28545 4.12946 9.4115 4.15373 9.53872 4.15373H14.9231C15.4753 4.15373 15.9231 4.60145 15.9231 5.15373V13.5383C15.9231 14.0906 15.4753 14.5383 14.9231 14.5383H3.0769C2.52462 14.5383 2.0769 14.0906 2.0769 13.5383V4.46142Z" fill="#7A5BBE"/>
<path d="M7.44229 6.05747L8.89914 4.89198C9.07646 4.75013 9.29677 4.67285 9.52384 4.67285H14.9231C15.4753 4.67285 15.9231 5.12057 15.9231 5.67285L15.9231 12.6382C15.9231 13.1905 15.4753 13.6382 14.9231 13.6382H3.0769C2.52462 13.6382 2.0769 13.1905 2.0769 12.6382V7.05747C2.0769 6.50518 2.52462 6.05747 3.0769 6.05747H7.44229Z" fill="#BC8FF8"/>
<path d="M7.55767 6.23056L9.07582 5.05522C9.25105 4.91956 9.46638 4.84595 9.68799 4.84595H14.9231C15.4753 4.84595 15.9231 5.29366 15.9231 5.84595L15.9231 12.9844C15.9231 13.5367 15.4753 13.9844 14.9231 13.9844H3.0769C2.52462 13.9844 2.0769 13.5367 2.0769 12.9844V7.23056C2.0769 6.67828 2.52462 6.23056 3.0769 6.23056H7.55767Z" fill="url(#paint0_linear_310_7206)"/>
<path d="M8.07408 7.02913C7.56007 6.72426 6.9231 7.1132 6.9231 7.73192V11.6527C6.9231 12.2716 7.56028 12.6605 8.0743 12.3554L11.3783 10.3943C11.8997 10.0848 11.8995 9.29805 11.3781 8.9888L8.07408 7.02913Z" fill="url(#paint1_linear_310_7206)"/>
<defs>
<linearGradient id="paint0_linear_310_7206" x1="2.76921" y1="5.53826" x2="9.27308" y2="18.007" gradientUnits="userSpaceOnUse">
<stop stop-color="#B670FE"/>
<stop offset="1" stop-color="#8C4FE9"/>
</linearGradient>
<linearGradient id="paint1_linear_310_7206" x1="8.53848" y1="8.30771" x2="12.256" y2="11.9671" gradientUnits="userSpaceOnUse">
<stop stop-color="white"/>
<stop offset="1" stop-color="#F3ECEC"/>
</linearGradient>
</defs>
</svg>
