<svg width="18" height="18" viewBox="0 0 18 18" fill="none" xmlns="http://www.w3.org/2000/svg">
<path d="M2.0769 4.46142C2.0769 3.90914 2.52462 3.46143 3.0769 3.46143H7.42278C7.55 3.46143 7.67605 3.4857 7.79417 3.53295L9.16733 4.08221C9.28545 4.12946 9.4115 4.15373 9.53872 4.15373H14.9231C15.4753 4.15373 15.9231 4.60145 15.9231 5.15373V13.5383C15.9231 14.0906 15.4753 14.5383 14.9231 14.5383H3.0769C2.52462 14.5383 2.0769 14.0906 2.0769 13.5383V4.46142Z" fill="#F9B919"/>
<path d="M7.44229 6.05747L8.89914 4.89198C9.07646 4.75013 9.29677 4.67285 9.52384 4.67285H14.9231C15.4753 4.67285 15.9231 5.12057 15.9231 5.67285L15.9231 12.6382C15.9231 13.1905 15.4753 13.6382 14.9231 13.6382H3.0769C2.52462 13.6382 2.0769 13.1905 2.0769 12.6382V7.05747C2.0769 6.50518 2.52462 6.05747 3.0769 6.05747H7.44229Z" fill="#FFEDB9"/>
<path d="M7.55767 6.23056L9.07582 5.05522C9.25105 4.91956 9.46638 4.84595 9.68799 4.84595H14.9231C15.4753 4.84595 15.9231 5.29366 15.9231 5.84595L15.9231 12.9844C15.9231 13.5367 15.4753 13.9844 14.9231 13.9844H3.0769C2.52462 13.9844 2.0769 13.5367 2.0769 12.9844V7.23056C2.0769 6.67828 2.52462 6.23056 3.0769 6.23056H7.55767Z" fill="url(#paint0_linear_310_4993)"/>
<ellipse cx="9.3461" cy="10.0385" rx="3.11538" ry="3.11538" fill="#F9B919"/>
<path d="M9.14882 7.96146C9.27069 7.70393 9.62283 7.70393 9.7447 7.96146L10.2064 8.9371L11.2388 9.09355C11.5114 9.13485 11.6202 9.4841 11.423 9.68456L10.6759 10.444L10.8523 11.5163C10.8988 11.7994 10.6139 12.0152 10.3702 11.8816L9.44676 11.3753L8.52333 11.8816C8.27958 12.0152 7.9947 11.7994 8.04125 11.5163L8.21761 10.444L7.47053 9.68456C7.27334 9.4841 7.38215 9.13485 7.65467 9.09355L8.6871 8.9371L9.14882 7.96146Z" fill="url(#paint1_linear_310_4993)"/>
<defs>
<linearGradient id="paint0_linear_310_4993" x1="2.76921" y1="5.53826" x2="9.27308" y2="18.007" gradientUnits="userSpaceOnUse">
<stop stop-color="#FFE79F"/>
<stop offset="1" stop-color="#FFCB40"/>
</linearGradient>
<linearGradient id="paint1_linear_310_4993" x1="8.75449" y1="8.80677" x2="11.5237" y2="11.9222" gradientUnits="userSpaceOnUse">
<stop stop-color="white"/>
<stop offset="1" stop-color="#F3ECEC"/>
</linearGradient>
</defs>
</svg>
