<svg width="22" height="22" viewBox="0 0 22 22" fill="none" xmlns="http://www.w3.org/2000/svg">
<path d="M18.15 7.33811C18.2776 7.33811 18.3953 7.38211 18.4888 7.45581L18.5625 7.52511L18.5812 7.54711C19.2203 8.33917 19.627 9.29303 19.7562 10.3025C19.8854 11.312 19.732 12.3376 19.313 13.2651C18.894 14.1925 18.2259 14.9856 17.383 15.5559C16.5401 16.1263 15.5555 16.4516 14.5387 16.4956L14.3 16.5H7.69999C7.58882 16.5 7.47767 16.4967 7.36669 16.4901L9.18939 18.3106C9.28034 18.4017 9.33642 18.5219 9.34788 18.6501C9.35933 18.7784 9.32544 18.9066 9.25209 19.0124L9.18939 19.0894C9.09825 19.1804 8.97809 19.2364 8.84985 19.2479C8.72161 19.2593 8.59341 19.2255 8.48759 19.1521L8.41059 19.0894L5.66059 16.3394C5.56965 16.2483 5.51356 16.1281 5.50211 15.9999C5.49065 15.8716 5.52455 15.7434 5.59789 15.6376L5.66059 15.5606L8.41059 12.8106C8.5076 12.7132 8.63759 12.6556 8.77494 12.6492C8.91229 12.6429 9.04704 12.6882 9.15263 12.7763C9.25823 12.8643 9.32701 12.9887 9.34542 13.125C9.36383 13.2613 9.33053 13.3995 9.25209 13.5124L9.18939 13.5894L7.38869 15.389L7.54269 15.3978L7.69999 15.4H14.3C15.1309 15.4001 15.9449 15.1649 16.6477 14.7216C17.3505 14.2784 17.9134 13.6451 18.2713 12.8953C18.6292 12.1454 18.7675 11.3095 18.6701 10.4843C18.5727 9.65911 18.2436 8.87837 17.721 8.23241C17.6564 8.15154 17.616 8.05408 17.6043 7.95125C17.5926 7.84842 17.6102 7.74438 17.655 7.65109C17.6998 7.55779 17.77 7.47904 17.8576 7.42387C17.9451 7.3687 18.0465 7.33935 18.15 7.33921V7.33811ZM12.8106 2.91061C12.9017 2.81966 13.0219 2.76358 13.1501 2.75212C13.2784 2.74066 13.4066 2.77456 13.5124 2.84791L13.5894 2.91061L16.3394 5.66061L16.4021 5.73761C16.4655 5.82945 16.4994 5.93841 16.4994 6.05001C16.4994 6.1616 16.4655 6.27056 16.4021 6.36241L16.3394 6.43941L13.5894 9.18941L13.5124 9.25211C13.4205 9.31549 13.3116 9.34944 13.2 9.34944C13.0884 9.34944 12.9794 9.31549 12.8876 9.25211L12.8106 9.18941L12.7479 9.11241C12.6845 9.02056 12.6506 8.9116 12.6506 8.80001C12.6506 8.68841 12.6845 8.57945 12.7479 8.48761L12.8106 8.41061L14.6113 6.61101L14.4573 6.60221L14.3 6.60001H7.69999C6.86837 6.59996 6.05376 6.83559 5.35058 7.27959C4.6474 7.72359 4.08445 8.35778 3.72697 9.10865C3.36949 9.85953 3.23213 10.6963 3.33081 11.5221C3.42948 12.3478 3.76015 13.1287 4.28449 13.7742C4.37216 13.891 4.40982 14.0379 4.38919 14.1825C4.36856 14.3271 4.29133 14.4576 4.17449 14.5453C4.11664 14.5887 4.0508 14.6203 3.98074 14.6383C3.91068 14.6562 3.83776 14.6602 3.76616 14.65C3.62155 14.6294 3.49106 14.5521 3.40339 14.4353C2.76872 13.642 2.36617 12.6885 2.24036 11.6804C2.11456 10.6723 2.27043 9.64905 2.69068 8.72414C3.11093 7.79922 3.77914 7.00877 4.62122 6.44045C5.46329 5.87213 6.44632 5.54814 7.46129 5.50441L7.69999 5.50001H14.3C14.4122 5.50001 14.5233 5.50331 14.6333 5.50991L12.8106 3.68941L12.7479 3.61241C12.6745 3.50659 12.6406 3.37839 12.6521 3.25015C12.6636 3.12191 12.7196 3.00175 12.8106 2.91061Z" fill="#C4C4C4"/>
</svg>
